<svg aria-hidden="true" style="position: absolute; width: 0; height: 0; overflow: hidden;" version="1.1" xmlns="http://www.w3.org/2000/svg" xmlns:xlink="http://www.w3.org/1999/xlink">
<defs>
<symbol id="Chat" viewBox="0 0 32 32">
<path fill="#ff5a30" style="fill: var(--color1, #ff5a30)" d="M29.231 14.089c-0.19 1.316-0.64 2.566-1.307 3.716 0.050 0.285 0.076 0.572 0.076 0.861 0 1.004-0.291 1.964-0.83 2.837-0.269 0.436-0.338 0.946-0.365 1.283-0.031 0.387-0.020 0.81 0.007 1.216 0.031 0.456 0.087 0.934 0.151 1.386-0.52-0.152-1.084-0.304-1.623-0.426-0.448-0.101-0.906-0.187-1.321-0.23-0.362-0.037-0.885-0.066-1.353 0.085-1.023 0.331-2.148 0.515-3.334 0.515-1.411 0-2.706-0.25-3.842-0.685-0.273 0.012-0.548 0.019-0.825 0.019-1.606 0-3.152-0.211-4.598-0.602 2.103 2.432 5.569 3.935 9.265 3.935 1.444 0 2.83-0.222 4.107-0.629 0.002 0 0.006 0 0.012-0 0.033-0.001 0.124-0.002 0.294 0.015 0.267 0.028 0.611 0.089 1.008 0.179 0.79 0.178 1.677 0.441 2.369 0.661 1.467 0.466 2.888-0.814 2.626-2.303-0.113-0.641-0.23-1.423-0.276-2.1-0.023-0.341-0.026-0.62-0.009-0.825 0.007-0.085 0.015-0.138 0.021-0.167 0.75-1.243 1.182-2.658 1.182-4.164 0-1.698-0.527-3.249-1.435-4.577z"></path>
<path fill="#ff5a30" style="fill: var(--color1, #ff5a30)" d="M7.462 7.597c-1.797 1.374-2.796 3.179-2.796 5.069 0 0.943 0.245 1.851 0.706 2.695 0.175 0.322 0.225 0.653 0.243 0.878 0.019 0.245 0.010 0.497-0.012 0.732-0.043 0.471-0.144 1.005-0.266 1.531-0.143 0.615-0.326 1.271-0.511 1.887 0.704-0.256 1.474-0.518 2.204-0.731 0.59-0.172 1.185-0.321 1.716-0.405 0.457-0.072 1.119-0.143 1.69 0.054 1.28 0.443 2.713 0.693 4.231 0.693 2.863 0 5.405-0.889 7.204-2.264 1.797-1.374 2.796-3.179 2.796-5.069s-0.999-3.695-2.796-5.069c-1.798-1.375-4.341-2.264-7.204-2.264s-5.405 0.889-7.204 2.264zM5.842 5.479c2.303-1.761 5.427-2.813 8.824-2.813s6.52 1.051 8.824 2.813c2.305 1.762 3.843 4.291 3.843 7.187s-1.538 5.425-3.843 7.187c-2.303 1.761-5.427 2.813-8.824 2.813-1.791 0-3.501-0.292-5.054-0.823-0.002 0.004-0.128-0.008-0.45 0.043-0.372 0.059-0.846 0.174-1.385 0.331-1.074 0.313-2.28 0.757-3.199 1.114-1.591 0.619-3.213-0.909-2.677-2.537 0.284-0.863 0.619-1.953 0.838-2.895 0.11-0.474 0.181-0.873 0.208-1.168 0.009-0.103 0.012-0.177 0.011-0.228-0.614-1.173-0.959-2.47-0.959-3.837 0-2.896 1.538-5.425 3.843-7.187zM2.954 16.43c0-0 0.001 0.003 0.002 0.011-0.001-0.007-0.002-0.011-0.002-0.011z"></path>
</symbol>
<symbol id="iPhone" viewBox="0 0 32 32">
<path fill="#ff5a30" style="fill: var(--color1, #ff5a30)" d="M11.333 3.896c-1.105 0-2 0.895-2 2v20.208c0 1.105 0.895 2 2 2h9.333c1.105 0 2-0.895 2-2v-20.208c0-1.105-0.895-2-2-2h-0.111l-0.325 0.779c-0.207 0.497-0.692 0.82-1.231 0.82h-6c-0.538 0-1.024-0.324-1.231-0.82l-0.325-0.779h-0.111zM6.666 5.896c0-2.577 2.089-4.667 4.667-4.667h9.333c2.577 0 4.667 2.089 4.667 4.667v20.208c0 2.577-2.089 4.667-4.667 4.667h-9.333c-2.577 0-4.667-2.089-4.667-4.667v-20.208z"></path>
</symbol>
<symbol id="icon-ic-hand" viewBox="0 0 32 32">
<path fill="#ff5a30" style="fill: var(--color1, #ff5a30)" d="M4.667 29.333h-3.667c-0.552 0-1-0.448-1-1v-11.333c0-0.552 0.448-1 1-1 4.675 0 6.851 1.623 6.94 1.692 0.323 0.247 0.465 0.664 0.359 1.056l-2.667 9.848c-0.117 0.435-0.513 0.737-0.965 0.737zM2 27.333h1.901l2.264-8.361c-0.697-0.329-2.060-0.82-4.165-0.943v9.304z"></path>
<path fill="#ff5a30" style="fill: var(--color1, #ff5a30)" d="M17.333 32c-3.012 0-8.564-2.305-12.692-4.241-0.5-0.235-0.715-0.831-0.48-1.331 0.233-0.5 0.831-0.717 1.329-0.481 5.493 2.577 9.811 4.053 11.843 4.053 2.704 0 8.843-2.921 12.060-4.607-0.371-0.212-0.923-0.393-1.727-0.393-1.173 0-2.62 0.48-4.019 0.944-0.455 0.151-0.908 0.301-1.357 0.439-0.989 0.305-2.157 0.617-3.292 0.617-2.809 0-6.519-1.336-6.675-1.393-0.52-0.189-0.788-0.763-0.599-1.281 0.189-0.52 0.764-0.785 1.281-0.599 0.035 0.013 3.536 1.273 5.992 1.273 0.875 0 1.905-0.283 2.705-0.529 0.435-0.133 0.873-0.279 1.312-0.424 1.549-0.515 3.151-1.047 4.648-1.047 3.305 0 4.224 2.201 4.261 2.296 0.188 0.468-0.004 1.003-0.445 1.247-0.4 0.223-9.937 5.457-14.147 5.457z"></path>
<path fill="#ff5a30" style="fill: var(--color1, #ff5a30)" d="M22 26.453c-0.552 0-1-0.448-1-1v-0.6c0-0.788-0.561-1.476-1.333-1.633l-12.841-2.627c-0.54-0.111-0.889-0.639-0.779-1.18s0.64-0.887 1.18-0.779l12.841 2.627c1.699 0.347 2.932 1.859 2.932 3.593v0.6c0 0.551-0.448 0.999-1 0.999z"></path>
<path fill="#ff5a30" style="fill: var(--color1, #ff5a30)" d="M24 18.666c-0.133 0-0.265-0.027-0.391-0.080-0.311-0.132-7.609-3.309-7.609-9.848v-5.357c0-0.428 0.272-0.808 0.679-0.947l7-2.381c0.208-0.072 0.435-0.072 0.643 0l7 2.381c0.407 0.137 0.679 0.517 0.679 0.947v5.357c0 6.539-7.299 9.717-7.609 9.849-0.125 0.052-0.257 0.079-0.391 0.079zM18 4.097v4.641c0 4.464 4.607 7.121 5.999 7.821 1.389-0.704 6.001-3.375 6.001-7.821v-4.641l-6-2.041-6 2.041z"></path>
<path fill="#ff5a30" style="fill: var(--color1, #ff5a30)" d="M23.666 12.667c-0.264 0-0.52-0.105-0.707-0.293l-2.667-2.667c-0.391-0.391-0.391-1.024 0-1.415s1.024-0.391 1.415 0l1.852 1.852 3.307-4.411c0.328-0.441 0.956-0.532 1.4-0.2 0.441 0.332 0.531 0.959 0.199 1.4l-4 5.333c-0.173 0.232-0.439 0.377-0.729 0.397-0.023 0.003-0.045 0.003-0.069 0.003z"></path>
</symbol>
<symbol id="icon-ic-like" viewBox="0 0 32 32">
<path fill="#ff5a30" style="fill: var(--color1, #ff5a30)" d="M29.344 19.813c0.446-0.498 0.718-1.156 0.718-1.875 0-1.551-1.262-2.812-2.813-2.812h-5.459c0.541-1.641 0.771-3.817 0.771-4.751v-0.937c0-2.067-1.683-3.75-3.75-3.75h-0.938c-0.43 0-0.805 0.292-0.909 0.71l-0.511 2.043c-0.716 2.861-2.988 6.018-5.339 6.592-0.412-1.043-1.429-1.783-2.616-1.783h-5.625c-0.518 0-0.938 0.42-0.938 0.937v16.875c0 0.517 0.42 0.937 0.938 0.937h5.625c1.118 0 2.086-0.656 2.539-1.603l3.221 1.074c1.053 0.351 2.151 0.529 3.261 0.529h7.854c1.551 0 2.812-1.262 2.812-2.813 0-0.366-0.070-0.716-0.197-1.036 1.192-0.326 2.073-1.419 2.073-2.714 0-0.719-0.272-1.377-0.718-1.875 0.446-0.498 0.718-1.156 0.718-1.875s-0.272-1.377-0.718-1.875zM9.437 29.187c0 0.517-0.421 0.938-0.937 0.938h-4.688v-15h4.688c0.517 0 0.937 0.421 0.937 0.938v13.125zM25.375 20.75h1.875c0.517 0 0.937 0.421 0.937 0.937s-0.421 0.938-0.937 0.938h-1.875c-0.517 0-0.938 0.42-0.938 0.938s0.42 0.937 0.938 0.937h1.875c0.517 0 0.937 0.421 0.937 0.937s-0.421 0.938-0.937 0.938h-1.875c-0.517 0-0.938 0.42-0.938 0.938s0.42 0.937 0.938 0.937c0.517 0 0.938 0.421 0.938 0.937s-0.421 0.938-0.938 0.938h-7.854c-0.909 0-1.807-0.146-2.669-0.433l-3.54-1.18v-11.601c1.471-0.279 2.91-1.211 4.209-2.735 1.269-1.489 2.298-3.463 2.752-5.281l0.333-1.333h0.206c1.034 0 1.875 0.841 1.875 1.875v0.937c0 1.259-0.394 3.673-0.897 4.751h-1.915c-0.517 0-0.938 0.42-0.938 0.938s0.42 0.937 0.938 0.937h9.375c0.517 0 0.937 0.421 0.937 0.937s-0.421 0.938-0.937 0.938h-1.875c-0.517 0-0.938 0.42-0.938 0.938s0.42 0.937 0.938 0.937z"></path>
<path fill="#ff5a30" style="fill: var(--color1, #ff5a30)" d="M6.625 28.25c0.518 0 0.938-0.42 0.938-0.937s-0.42-0.938-0.938-0.938c-0.518 0-0.938 0.42-0.938 0.938s0.42 0.937 0.938 0.937z"></path>
<path fill="#ff5a30" style="fill: var(--color1, #ff5a30)" d="M19.75 0c-0.518 0-0.937 0.42-0.937 0.938v1.938c0 0.518 0.42 0.938 0.937 0.938s0.937-0.42 0.937-0.938v-1.938c0-0.518-0.42-0.938-0.937-0.938z"></path>
<path fill="#ff5a30" style="fill: var(--color1, #ff5a30)" d="M15.773 4.134l-1.326-1.326c-0.366-0.366-0.96-0.366-1.326 0s-0.366 0.96 0 1.326l1.326 1.326c0.366 0.366 0.96 0.366 1.326 0s0.366-0.96 0-1.326z"></path>
<path fill="#ff5a30" style="fill: var(--color1, #ff5a30)" d="M26.379 2.808c-0.366-0.366-0.96-0.366-1.326 0l-1.326 1.326c-0.366 0.366-0.366 0.96 0 1.326s0.96 0.366 1.326 0l1.326-1.326c0.366-0.366 0.366-0.96 0-1.326z"></path>
</symbol>
<symbol id="icon-ic-slippers" viewBox="0 0 32 32">
<path fill="#ff5a30" style="fill: var(--color1, #ff5a30)" d="M25.369 1.393c-4.113-0.432-7.811 2.562-8.243 6.675l-0.751 7.148c-0.054 0.515 0.319 0.976 0.834 1.030l0.311 0.033-0.784 7.459c-0.36 3.427 2.135 6.509 5.562 6.869s6.509-2.135 6.869-5.562l0.784-7.459 0.311 0.033c0.515 0.054 0.976-0.319 1.030-0.834l0.751-7.148c0.432-4.113-2.562-7.811-6.675-8.243zM25.173 3.258c3.085 0.324 5.33 3.098 5.006 6.182l-0.261 2.486-11.188-1.176 0.261-2.486c0.324-3.085 3.098-5.33 6.182-5.006zM18.338 14.48l0.196-1.865 11.188 1.176-0.196 1.865-11.188-1.176zM27.303 24.849c-0.252 2.399-2.409 4.146-4.808 3.894s-4.146-2.409-3.894-4.808l0.784-7.459 8.702 0.915-0.784 7.459z"></path>
<path fill="#ff5a30" style="fill: var(--color1, #ff5a30)" d="M21.447 26.748l2.486 0.261c0.515 0.054 0.976-0.319 1.030-0.834s-0.319-0.976-0.834-1.030l-2.486-0.261c-0.515-0.054-0.976 0.319-1.030 0.834s0.319 0.976 0.834 1.030z"></path>
<path fill="#ff5a30" style="fill: var(--color1, #ff5a30)" d="M6.631 1.393c-4.113 0.432-7.107 4.13-6.675 8.243l0.751 7.148c0.054 0.515 0.515 0.888 1.030 0.834l0.311-0.033 0.784 7.459c0.36 3.427 3.442 5.923 6.869 5.562s5.923-3.442 5.562-6.869l-0.784-7.459 0.311-0.033c0.515-0.054 0.888-0.515 0.834-1.030l-0.751-7.148c-0.432-4.113-4.13-7.107-8.243-6.675zM2.475 15.656l-0.196-1.865 11.188-1.176 0.196 1.865-11.188 1.176zM13.4 23.934c0.252 2.399-1.495 4.556-3.894 4.808s-4.556-1.495-4.808-3.894l-0.784-7.459 8.702-0.915 0.784 7.459zM13.271 10.75l-11.188 1.176-0.261-2.486c-0.324-3.085 1.922-5.858 5.006-6.182s5.858 1.922 6.182 5.006l0.261 2.486z"></path>
<path fill="#ff5a30" style="fill: var(--color1, #ff5a30)" d="M8.067 27.009l2.486-0.261c0.515-0.054 0.888-0.515 0.834-1.030s-0.515-0.889-1.030-0.834l-2.486 0.261c-0.515 0.054-0.889 0.515-0.834 1.030s0.515 0.889 1.030 0.834z"></path>
</symbol>
<symbol id="icon-ic-construction" viewBox="0 0 33 32">
<path fill="#ff5a30" style="fill: var(--color1, #ff5a30)" d="M31.37 16.937c0.518 0 0.937-0.42 0.937-0.937v-7c0-0.518-0.42-0.937-0.937-0.937-0.654 0-13.421 0-14.125 0v-6.063c0-0.518-0.42-0.938-0.937-0.938h-10c-0.518 0-0.938 0.42-0.938 0.938v6.063h-4.125c-0.518 0-0.938 0.42-0.938 0.937v7c0 0.518 0.42 0.937 0.938 0.937h4.125v5.125h-4.125c-0.518 0-0.938 0.42-0.938 0.937v7c0 0.518 0.42 0.937 0.938 0.937h30.125c0.518 0 0.937-0.42 0.937-0.937v-7c0-0.518-0.42-0.937-0.937-0.937h-4.125v-5.125h4.125zM30.433 15.063c-1.003 0-7.196 0-8.188 0v-5.125h8.188v5.125zM20.37 15.063c-0.982 0-7.137 0-8.125 0v-5.125h8.125v5.125zM7.245 2.938h8.125v5.125c-0.982 0-7.137 0-8.125 0v-5.125zM2.183 15.063v-5.125h8.188v5.125c-0.992 0-7.185 0-8.188 0zM7.245 16.937h8.125v5.125c-0.982 0-7.137 0-8.125 0v-5.125zM2.183 23.937h8.188v5.125h-8.188v-5.125zM12.245 23.937h8.125v5.125h-8.125v-5.125zM30.433 23.937v5.125h-8.188v-5.125h8.188zM25.37 22.063c-0.982 0-7.137 0-8.125 0v-5.125h8.125v5.125z"></path>
</symbol>
<symbol id="icon-ic-plan" viewBox="0 0 33 32">
<path fill="#ff5a30" style="fill: var(--color1, #ff5a30)" d="M28.558 1.938c-1.385 0-2.597 0.755-3.247 1.875h-24.066c-0.518 0-0.938 0.42-0.938 0.938v24.375c0 0.518 0.42 0.938 0.938 0.938h27.312c2.068 0 3.75-1.682 3.75-3.75v-20.625c0-2.068-1.682-3.75-3.75-3.75zM28.558 28.188c-0.367 0-26.034 0-26.375 0v-22.5h22.625v20.625c0 0.518 0.42 0.937 0.937 0.937s0.938-0.42 0.938-0.937c0-1.034 0.841-1.875 1.875-1.875s1.875 0.841 1.875 1.875c0 1.034-0.841 1.875-1.875 1.875zM30.433 23.066c-0.552-0.32-1.192-0.503-1.875-0.503s-1.323 0.183-1.875 0.503v-17.378c0-1.034 0.841-1.875 1.875-1.875s1.875 0.841 1.875 1.875v17.378z"></path>
<path fill="#ff5a30" style="fill: var(--color1, #ff5a30)" d="M21.933 7.563h-16.875c-0.518 0-0.938 0.42-0.938 0.937v16.875c0 0.518 0.42 0.937 0.938 0.937h9.375c0.249 0 0.487-0.099 0.663-0.275s0.275-0.414 0.275-0.663v-1.875c0-1.222 0.784-2.265 1.875-2.652v4.527c0 0.518 0.42 0.937 0.938 0.937h3.75c0.518 0 0.938-0.42 0.938-0.937v-16.875c0-0.518-0.42-0.937-0.938-0.937zM20.995 24.437h-1.875v-4.687c0-0.518-0.42-0.938-0.937-0.938-2.585 0-4.688 2.103-4.688 4.688v0.937h-7.5v-5.625h3.75v2.813c0 0.518 0.42 0.938 0.938 0.938s0.937-0.42 0.937-0.938v-3.75c0-0.518-0.42-0.938-0.937-0.938h-4.688v-7.5h5.625v3.75h-2.813c-0.518 0-0.937 0.42-0.937 0.937s0.42 0.938 0.937 0.938h7.5c0.518 0 0.937-0.42 0.937-0.938s-0.42-0.937-0.937-0.937h-2.813v-3.75h7.5v15z"></path>
</symbol>
<symbol id="icon-ic-painting" viewBox="0 0 33 32">
<path fill="#ff5a30" style="fill: var(--color1, #ff5a30)" d="M26.683 2.813c0-1.551-1.262-2.813-2.813-2.813h-18.75c-1.551 0-2.813 1.262-2.813 2.813v5.625c0 1.551 1.262 2.813 2.813 2.813h18.75c1.551 0 2.813-1.262 2.813-2.813v-0.937h0.937c0.517 0 0.938 0.421 0.938 0.937v3.75c0 0.517-0.421 0.937-0.938 0.937h-11.25c-1.551 0-2.813 1.262-2.813 2.813v2.813h-0.938c-0.518 0-0.937 0.42-0.937 0.937v3.699l-0.938 3.811c-0.61 2.438 1.233 4.803 3.75 4.803 2.519 0 4.359-2.367 3.751-4.8l-0.938-3.814v-3.699c0-0.518-0.42-0.937-0.937-0.937h-0.938v-2.813c0-0.517 0.421-0.937 0.938-0.937h11.25c1.551 0 2.813-1.262 2.813-2.813v-3.75c0-1.551-1.262-2.812-2.813-2.812h-0.937v-2.813zM15.433 20.625v1.938h-1.875v-1.938h1.875zM14.495 30.125c-1.291 0-2.246-1.212-1.93-2.477l0.79-3.211h2.28l0.791 3.214c0.314 1.256-0.635 2.473-1.931 2.473zM5.12 1.875h18.75c0.517 0 0.937 0.421 0.937 0.938v0.938h-2.813c-0.911 0-2.076 0.341-3.425 0.736-1.822 0.534-3.887 1.139-5.95 1.139-2.010 0-3.428-0.587-4.678-1.105-0.956-0.396-1.859-0.77-2.822-0.77h-0.938v-0.938c0-0.517 0.421-0.938 0.938-0.938zM24.808 8.437c0 0.517-0.421 0.938-0.937 0.938h-18.75c-0.517 0-0.938-0.421-0.938-0.938v-2.812h0.938c0.59 0 1.259 0.277 2.104 0.627 1.342 0.556 3.012 1.248 5.396 1.248 2.331 0 4.63-0.673 6.477-1.214 1.16-0.34 2.256-0.661 2.898-0.661h2.813v2.812z"></path>
</symbol>
<symbol id="icon-ic-pantone" viewBox="0 0 33 32">
<path fill="#fff" style="fill: var(--color2, #fff)" d="M6.933 22.563c-1.551 0-2.813 1.262-2.813 2.813s1.262 2.813 2.813 2.813 2.813-1.262 2.813-2.813c0-1.551-1.262-2.813-2.813-2.813zM6.933 26.313c-0.517 0-0.937-0.421-0.937-0.937s0.421-0.938 0.937-0.938c0.517 0 0.938 0.421 0.938 0.938s-0.421 0.937-0.938 0.937z"></path>
<path fill="#fff" style="fill: var(--color2, #fff)" d="M30.616 19.046c0.64-0.865 0.757-2.072 0.176-3.080l-3.748-6.554c-0.648-1.123-2.016-1.635-3.235-1.309 0.26-1.167-0.25-2.42-1.339-3.048l-6.495-3.75c-0.928-0.536-2.037-0.481-2.89 0.047-0.494-0.81-1.386-1.351-2.402-1.351h-7.563c-1.551 0-2.813 1.262-2.813 2.813 0 0.65 0 25.626 0 26.375 0 1.551 1.262 2.813 2.813 2.813 0.728 0 22.811 0 26.375 0 1.551 0 2.813-1.262 2.813-2.813v-7.563c0-1.153-0.697-2.145-1.692-2.579zM11.62 29.188c0 0.517-0.421 0.937-0.937 0.937h-7.563c-0.517 0-0.938-0.421-0.938-0.937 0-0.428 0-8.089 0-8.5h9.438v8.5zM11.62 18.813h-9.438v-7.563h9.438v7.563zM11.62 9.375h-9.438v-6.563c0-0.517 0.421-0.938 0.938-0.938h7.563c0.517 0 0.937 0.421 0.937 0.938v6.563zM13.495 3.723l0.261-0.452c0.259-0.448 0.833-0.602 1.281-0.343l6.495 3.75c0.448 0.259 0.602 0.833 0.343 1.282l-1.083 1.883c-0.027 0.040-0.052 0.082-0.072 0.125l-7.224 12.556v-18.802zM13.495 26.285l8.764-15.234 1.812-1.046c0.459-0.265 1.089-0.104 1.347 0.341l3.748 6.554c0.259 0.449 0.108 1.025-0.346 1.287-0.669 0.388-14.666 8.49-15.325 8.872v-0.774zM30.433 29.188c0 0.517-0.421 0.937-0.937 0.937h-16.161c0.1-0.282 0.156-0.584 0.16-0.899l14.749-8.539h1.252c0.517 0 0.937 0.421 0.937 0.937v7.563z"></path>
</symbol>
<symbol id="icon-client-logo" viewBox="0 0 60 32">
<path d="M-23-26.5h108v83h-108v-83z"></path>
</symbol>
<symbol id="icon-client-logo-1" viewBox="0 0 60 32">
<path d="M-14.5-18h89v68h-89v-68z"></path>
</symbol>
<symbol id="icon-client-logo-2" viewBox="0 0 60 32">
<path d="M-9-14h78v60h-78v-60z"></path>
</symbol>
<symbol id="icon-client-logo-3" viewBox="0 0 60 32">
<path d="M-8.5-14h78v60h-78v-60z"></path>
</symbol>
<symbol id="icon-client-logo-4" viewBox="0 0 60 32">
<path d="M-17-20h94v72h-94v-72z"></path>
</symbol>
<symbol id="icon-client-logo-5" viewBox="0 0 60 32">
<path d="M-12-17.5h87v67h-87v-67z"></path>
</symbol>
<symbol id="icon-Whatsapp" viewBox="0 0 32 32">
<path fill="#fff" style="fill: var(--color2, #fff)" opacity="0.6" d="M29.333 15.657c0 7.174-5.86 12.99-13.091 12.99-2.295 0-4.452-0.587-6.328-1.616l-7.248 2.303 2.363-6.969c-1.192-1.957-1.879-4.253-1.879-6.707 0-7.174 5.861-12.99 13.091-12.99s13.091 5.816 13.091 12.99zM16.242 4.735c-6.069 0-11.006 4.899-11.006 10.921 0 2.39 0.779 4.603 2.097 6.403l-1.375 4.056 4.23-1.344c1.738 1.141 3.82 1.807 6.055 1.807 6.068 0 11.006-4.899 11.006-10.921s-4.937-10.922-11.007-10.922zM22.853 18.648c-0.081-0.132-0.295-0.212-0.615-0.371s-1.899-0.93-2.193-1.036c-0.294-0.106-0.509-0.159-0.722 0.159s-0.829 1.036-1.016 1.248c-0.187 0.213-0.374 0.24-0.695 0.080s-1.354-0.496-2.58-1.58c-0.954-0.844-1.598-1.886-1.785-2.205s-0.020-0.491 0.141-0.649c0.145-0.143 0.321-0.372 0.481-0.558s0.214-0.319 0.321-0.531c0.107-0.212 0.054-0.398-0.027-0.558s-0.722-1.726-0.99-2.364c-0.267-0.637-0.534-0.531-0.722-0.531s-0.401-0.027-0.615-0.027-0.562 0.080-0.856 0.398c-0.294 0.319-1.123 1.089-1.123 2.656s1.149 3.081 1.31 3.293c0.16 0.212 2.219 3.532 5.481 4.807s3.263 0.849 3.851 0.796c0.588-0.053 1.898-0.77 2.167-1.513 0.267-0.744 0.267-1.382 0.187-1.514z"></path>
</symbol>
<symbol id="icon-Messanger" viewBox="0 0 32 32">
<path fill="#fff" style="fill: var(--color2, #fff)" opacity="0.6" d="M16 2.667c-7.363 0-13.333 5.527-13.333 12.345 0 3.885 1.938 7.35 4.968 9.613v4.708l4.54-2.492c1.212 0.335 2.495 0.517 3.825 0.517 7.363 0 13.333-5.527 13.333-12.345s-5.97-12.347-13.333-12.347zM17.325 19.292l-3.395-3.622-6.625 3.622 7.288-7.737 3.478 3.622 6.542-3.622-7.288 7.737z"></path>
</symbol>
<symbol id="icon-Facebook" viewBox="0 0 32 32">
<path fill="#fff" style="fill: var(--color2, #fff)" opacity="0.6" d="M23.417 1.339l-3.703-0.006c-4.16 0-6.849 2.833-6.849 7.219v3.328h-3.723c-0.322 0-0.582 0.268-0.582 0.598v4.823c0 0.33 0.261 0.598 0.582 0.598h3.723v12.169c0 0.331 0.261 0.598 0.582 0.598h4.858c0.322 0 0.582-0.268 0.582-0.598v-12.169h4.353c0.322 0 0.582-0.268 0.582-0.598l0.002-4.823c0-0.159-0.062-0.311-0.171-0.423s-0.258-0.175-0.412-0.175h-4.355v-2.822c0-1.356 0.315-2.045 2.034-2.045l2.495-0.001c0.321 0 0.582-0.268 0.582-0.598v-4.478c0-0.33-0.26-0.598-0.581-0.598z"></path>
</symbol>
<symbol id="icon-Twitter" viewBox="0 0 32 32">
<path fill="#fff" style="fill: var(--color2, #fff)" opacity="0.6" d="M30 7.696c-1.031 0.437-2.136 0.734-3.298 0.866 1.186-0.68 2.094-1.759 2.525-3.041-1.113 0.63-2.341 1.087-3.65 1.335-1.048-1.071-2.539-1.737-4.192-1.737-3.172 0-5.744 2.463-5.744 5.498 0 0.431 0.051 0.851 0.149 1.253-4.773-0.23-9.005-2.419-11.838-5.746-0.495 0.811-0.777 1.756-0.777 2.764 0 1.908 1.015 3.592 2.555 4.577-0.941-0.030-1.827-0.278-2.602-0.69v0.069c0 2.664 1.981 4.887 4.607 5.393-0.481 0.124-0.989 0.193-1.513 0.193-0.371 0-0.73-0.035-1.081-0.102 0.731 2.186 2.852 3.776 5.365 3.82-1.965 1.474-4.442 2.351-7.133 2.351-0.464 0-0.92-0.027-1.37-0.075 2.542 1.563 5.56 2.475 8.804 2.475 10.566 0 16.342-8.38 16.342-15.648l-0.019-0.712c1.129-0.771 2.105-1.739 2.873-2.841z"></path>
</symbol>
<symbol id="icon-YouTube" viewBox="0 0 32 32">
<path fill="#fff" style="fill: var(--color2, #fff)" opacity="0.6" d="M28.52 5.485c1.371 0.369 2.451 1.45 2.82 2.821 0.686 2.504 0.659 7.723 0.659 7.723s0 5.193-0.659 7.697c-0.369 1.371-1.45 2.451-2.821 2.82-2.504 0.659-12.52 0.659-12.52 0.659s-9.99 0-12.521-0.685c-1.371-0.369-2.451-1.45-2.821-2.821-0.659-2.478-0.659-7.697-0.659-7.697s0-5.193 0.659-7.697c0.369-1.371 1.476-2.478 2.82-2.847 2.504-0.659 12.521-0.659 12.521-0.659s10.017 0 12.521 0.685zM21.14 16.002l-8.329 4.797v-9.595l8.329 4.797z"></path>
</symbol>
<symbol id="icon-Heart" viewBox="0 0 32 32">
<path fill="#ff5a30" style="fill: var(--color1, #ff5a30)" d="M15.998 26.543c-6.132-3.493-9.552-6.964-11.206-9.976-1.693-3.083-1.545-5.679-0.606-7.522 1.931-3.788 7.421-4.999 10.766-0.768l1.046 1.323 1.046-1.323c3.346-4.231 8.836-3.019 10.767 0.768 0.939 1.843 1.087 4.439-0.606 7.522-1.654 3.012-5.074 6.483-11.207 9.976zM15.999 5.475c-4.706-4.471-11.647-2.623-14.188 2.36-1.394 2.735-1.413 6.27 0.644 10.016 2.039 3.713 6.104 7.633 12.898 11.388l0.645 0.356 0.645-0.356c6.795-3.755 10.86-7.675 12.899-11.388 2.057-3.746 2.038-7.281 0.644-10.016-2.54-4.983-9.482-6.831-14.188-2.36z"></path>
</symbol>
<symbol id="logo" viewBox="0 0 189 32">
<path fill="#1e212c" style="fill: var(--color3, #1e212c)" d="M0 16.145c0-8.873 4.8-14.255 12.655-14.255 5.964 0 10.764 3.636 11.636 9.018 0.145 0.582-0.291 1.018-0.873 1.018h-3.782c-0.436 0-0.727-0.291-0.873-0.727-0.727-2.764-3.055-4.509-6.109-4.509-4.218 0-6.836 3.636-6.836 9.455s2.618 9.455 6.982 9.455c3.055 0 5.236-1.6 6.109-4.218 0.145-0.436 0.436-0.727 0.873-0.727h3.782c0.582 0 1.018 0.582 0.873 1.018-0.873 5.236-5.527 8.727-11.636 8.727-8 0-12.8-5.527-12.8-14.255z"></path>
<path fill="#1e212c" style="fill: var(--color3, #1e212c)" d="M35.345 29.673h-4.218c-0.436 0-0.727-0.291-0.727-0.727v-25.164c0-0.582 0.582-1.164 1.164-1.164h10.182c5.964 0 9.6 3.345 9.6 8.582 0 3.055-1.455 5.818-3.927 7.273-0.582 0.291-0.727 1.018-0.436 1.455l4.509 8.582c0.291 0.436-0.145 1.018-0.582 1.018h-4.8c-0.291 0-0.582-0.145-0.727-0.436l-4.218-8.727c-0.145-0.436-0.582-0.582-1.018-0.582h-3.345c-0.436 0-0.727 0.291-0.727 0.727v8.582c0.145 0.291-0.291 0.582-0.727 0.582zM36.218 14.836c0 0.436 0.291 0.727 0.727 0.727h4.364c2.909 0 4.509-1.6 4.509-4.218s-1.745-4.218-4.509-4.218h-4.218c-0.436 0-0.727 0.291-0.727 0.727v6.982h-0.145z"></path>
<path fill="#1e212c" style="fill: var(--color3, #1e212c)" d="M74.909 29.673h-16c-0.582 0-1.018-0.436-1.018-1.018v-25.018c0-0.582 0.436-1.018 1.018-1.018h16c0.582 0 1.018 0.436 1.018 1.018v2.764c0 0.582-0.436 1.018-1.018 1.018h-10.618c-0.436 0-0.727 0.291-0.727 0.727v4.945c0 0.436 0.291 0.727 0.727 0.727h9.891c0.582 0 1.018 0.436 1.018 1.018v2.473c0 0.582-0.436 1.018-1.018 1.018h-9.891c-0.436 0-0.727 0.291-0.727 0.727v5.527c0 0.436 0.291 0.727 0.727 0.727h10.618c0.582 0 1.018 0.436 1.018 1.018v2.764c0 0.145-0.436 0.582-1.018 0.582z"></path>
<path fill="#1e212c" style="fill: var(--color3, #1e212c)" d="M97.454 23.127h-8.291c-0.436 0-0.727 0.291-0.873 0.582l-1.6 5.382c-0.145 0.436-0.436 0.582-0.873 0.582h-3.782c-0.582 0-1.018-0.582-0.873-1.164l8.727-25.309c0.145-0.291 0.436-0.582 0.873-0.582h5.382c0.436 0 0.727 0.291 0.873 0.582l8.727 25.309c0.145 0.582-0.291 1.164-0.873 1.164h-4.218c-0.436 0-0.727-0.291-0.873-0.582l-1.6-5.382c0-0.291-0.436-0.582-0.727-0.582zM90.327 18.909h5.964c0.291 0 0.436-0.291 0.436-0.582l-3.2-10.182h-0.291l-3.2 10.182c-0.145 0.291 0 0.582 0.291 0.582z"></path>
<path fill="#1e212c" style="fill: var(--color3, #1e212c)" d="M114.909 28.655v-20.655c0-0.436-0.291-0.727-0.727-0.727h-6.4c-0.582 0-1.164-0.436-1.164-1.164v-2.473c0-0.582 0.436-1.164 1.164-1.164h19.782c0.582 0 1.164 0.436 1.164 1.164v2.473c0 0.582-0.436 1.164-1.164 1.164h-6.4c-0.436 0-0.727 0.291-0.727 0.727v20.8c0 0.582-0.436 1.018-1.018 1.018h-3.636c-0.436-0.146-0.873-0.582-0.873-1.164z"></path>
<path fill="#1e212c" style="fill: var(--color3, #1e212c)" d="M150.982 29.673h-16c-0.582 0-1.018-0.436-1.018-1.018v-25.018c0-0.582 0.436-1.018 1.018-1.018h16c0.582 0 1.018 0.436 1.018 1.018v2.764c0 0.582-0.436 1.018-1.018 1.018h-10.618c-0.436 0-0.727 0.291-0.727 0.727v4.945c0 0.436 0.291 0.727 0.727 0.727h9.891c0.582 0 1.018 0.436 1.018 1.018v2.473c0 0.582-0.436 1.018-1.018 1.018h-9.891c-0.436 0-0.727 0.291-0.727 0.727v5.527c0 0.436 0.291 0.727 0.727 0.727h10.618c0.582 0 1.018 0.436 1.018 1.018v2.764c0 0.145-0.436 0.582-1.018 0.582z"></path>
<path fill="#ff5a30" style="fill: var(--color1, #ff5a30)" d="M171.2 14.109l-9.018-11.782c-0.582-0.582-1.309-0.873-2.036-0.873s-1.455 0.291-2.036 0.873c-1.018 1.164-1.018 2.909 0 4.073l7.127 9.6-7.127 9.6c-1.018 1.164-1.018 2.909 0 4.073 0.582 0.582 1.309 0.873 2.036 0.873s1.455-0.291 2.036-0.873l9.018-11.782c1.018-0.873 1.018-2.618 0-3.782z"></path>
<path fill="#ff5a30" style="fill: var(--color1, #ff5a30)" d="M175.044 14.109l9.018-11.782c0.582-0.582 1.309-0.873 2.036-0.873s1.455 0.291 2.036 0.873c1.018 1.164 1.018 2.909 0 4.073l-7.127 9.6 7.127 9.6c1.018 1.164 1.018 2.909 0 4.073-0.582 0.582-1.309 0.873-2.036 0.873s-1.455-0.291-2.036-0.873l-9.018-11.782c-1.018-0.873-1.018-2.618 0-3.782z"></path>
</symbol>
</defs>
</svg>
